<?xml version="1.0" encoding="UTF-8" standalone="no"?>
<svg
   xmlns:dc="http://purl.org/dc/elements/1.1/"
   xmlns:cc="http://creativecommons.org/ns#"
   xmlns:rdf="http://www.w3.org/1999/02/22-rdf-syntax-ns#"
   xmlns:svg="http://www.w3.org/2000/svg"
   xmlns="http://www.w3.org/2000/svg"
   xmlns:sodipodi="http://sodipodi.sourceforge.net/DTD/sodipodi-0.dtd"
   xmlns:inkscape="http://www.inkscape.org/namespaces/inkscape"
   viewBox="0 0 472.42535 390.07369"
   version="1.1"
   id="svg22"
   sodipodi:docname="children.svg"
   width="472.42535"
   height="390.0737"
   inkscape:version="1.0.1 (3bc2e813f5, 2020-09-07)">
  <metadata
     id="metadata28">
    <rdf:RDF>
      <cc:Work
         rdf:about="">
        <dc:format>image/svg+xml</dc:format>
        <dc:type
           rdf:resource="http://purl.org/dc/dcmitype/StillImage" />
        <dc:title></dc:title>
      </cc:Work>
    </rdf:RDF>
  </metadata>
  <defs
     id="defs26" />
  <sodipodi:namedview
     pagecolor="#ffffff"
     bordercolor="#666666"
     borderopacity="1"
     objecttolerance="10"
     gridtolerance="10"
     guidetolerance="10"
     inkscape:pageopacity="0"
     inkscape:pageshadow="2"
     inkscape:window-width="1920"
     inkscape:window-height="1106"
     id="namedview24"
     showgrid="false"
     fit-margin-top="0"
     fit-margin-left="0"
     fit-margin-right="0"
     fit-margin-bottom="0"
     inkscape:zoom="1.2964583"
     inkscape:cx="142.72707"
     inkscape:cy="15.525925"
     inkscape:window-x="-11"
     inkscape:window-y="-11"
     inkscape:window-maximized="1"
     inkscape:current-layer="svg22" />
  <path
     d="M 209.77747,273.93807 A 16.7236,16.7236 0 0 1 189.2679,262.09759 c 0,0 -22.40165,-83.56888 -22.40775,-83.59307 a 3.54016,3.54016 0 0 0 -4.33587,-2.50369 3.69933,3.69933 0 0 0 -2.62836,2.57855 l -0.0107,192.7947 a 18.699635,18.699635 0 0 1 -37.39927,0 v -94.71927 a 11.39367,11.39367 0 1 0 -22.786325,-0.002 v 94.72031 a 18.69968,18.69968 0 0 1 -37.39936,0 l -0.0112,-192.79517 a 3.69952,3.69952 0 0 0 -2.62779,-2.57855 3.5413,3.5413 0 0 0 -4.33645,2.50417 c -0.006,0.0242 -22.40775,83.59307 -22.40775,83.59307 a 16.74584,16.74584 0 0 1 -32.35053964,-8.668 L 32.492535,134.27728 l 0.11114,0.0302 a 35.03937,35.03937 0 0 1 34.0451,-26.77665 h 44.558835 v 0.001 h 44.32818 a 35.041,35.041 0 0 1 34.046,26.77617 l 0.11067,-0.0297 31.92549,119.15127 a 16.74359,16.74359 0 0 1 -11.84056,20.50852 z M 111.0933,2.234647e-8 A 50.34513,50.34513 0 1 0 161.438,50.34513 50.34552,50.34552 0 0 0 111.0933,2.234647e-8 Z m 260.39391,0 A 50.34513,50.34513 0 1 0 421.83287,50.34512 50.34416,50.34416 0 0 0 371.48721,2.234647e-8 Z M 471.85481,253.42861 439.92798,134.27725 l -0.11067,0.0302 A 35.0398,35.0398 0 0 0 405.77269,107.5308 h -68.571 a 35.03855,35.03855 0 0 0 -34.04367,26.77665 l -0.11162,-0.0302 -31.926,119.15136 a 16.74561,16.74561 0 1 0 32.35006,8.668 c 0,0 22.40033,-83.56888 22.4087,-83.59307 a 3.53938,3.53938 0 0 1 4.335,-2.50417 3.70061,3.70061 0 0 1 2.6237,2.56417 l -29.87513,111.49983 h 19.72644 l 0.006,81.30975 a 18.70011,18.70011 0 0 0 37.40022,0 v -81.30975 h 22.78537 v 81.31165 a 18.70059,18.70059 0 0 0 37.40117,0 l 0.006,-81.31165 h 19.7246 L 410.1374,178.56357 a 3.69728,3.69728 0 0 1 2.6237,-2.56417 3.53966,3.53966 0 0 1 4.33492,2.50417 c 0.007,0.0242 22.40785,83.59307 22.40785,83.59307 a 16.746016,16.746016 0 0 0 32.35092,-8.668 z"
     style="fill:#4d4d4d"
     id="path20" />
</svg>
