<svg xmlns="http://www.w3.org/2000/svg" viewBox="0 0 566.92913 566.92913"><path d="M256.68994,363.25095a16.7236,16.7236,0,0,1-20.50957-11.84048s-22.40165-83.56888-22.40775-83.59307a3.54016,3.54016,0,0,0-4.33587-2.50369,3.69933,3.69933,0,0,0-2.62836,2.57855l-.01067,192.7947a18.69963,18.69963,0,0,1-37.39927,0V365.96769a11.39367,11.39367,0,1,0-22.78632-.0019V460.686a18.69968,18.69968,0,0,1-37.39936,0l-.01115-192.79517a3.69952,3.69952,0,0,0-2.62779-2.57855,3.5413,3.5413,0,0,0-4.33645,2.50417c-.00648.02419-22.40775,83.59307-22.40775,83.59307a16.74584,16.74584,0,0,1-32.35054-8.668l31.926-119.15136.11114.03019a35.03937,35.03937,0,0,1,34.0451-26.77665h44.55883v.001h44.32818a35.041,35.041,0,0,1,34.046,26.77617l.11067-.02971,31.92549,119.15127A16.74359,16.74359,0,0,1,256.68994,363.25095ZM158.00577,89.31288a50.34513,50.34513,0,1,0,50.3447,50.34513A50.34552,50.34552,0,0,0,158.00577,89.31288Zm260.39391,0A50.34513,50.34513,0,1,0,468.74534,139.658,50.34416,50.34416,0,0,0,418.39968,89.31288ZM518.76728,342.74149,486.84045,223.59013l-.11067.03019a35.0398,35.0398,0,0,0-34.04462-26.77665h-68.571a35.03855,35.03855,0,0,0-34.04367,26.77665l-.11162-.03019-31.926,119.15136a16.74561,16.74561,0,1,0,32.35006,8.668s22.40033-83.56888,22.4087-83.59307a3.53938,3.53938,0,0,1,4.335-2.50417,3.70061,3.70061,0,0,1,2.6237,2.56417L349.8752,379.37625h19.72644l.00562,81.30975a18.70011,18.70011,0,0,0,37.40022,0V379.37625h22.78537v81.31165a18.70059,18.70059,0,0,0,37.40117,0l.00552-81.31165H486.925l-29.87513-111.4998a3.69728,3.69728,0,0,1,2.6237-2.56417,3.53966,3.53966,0,0,1,4.33492,2.50417c.00743.02419,22.40785,83.59307,22.40785,83.59307a16.746,16.746,0,0,0,32.35092-8.668Z" style="fill:#4d4d4d"/></svg>